<svg width="365" height="257" viewBox="0 0 365 257" fill="none" xmlns="http://www.w3.org/2000/svg">
<rect x="110.771" y="19.9751" width="29.0547" height="29.0547" rx="8" fill="#EDA834"/>
<path d="M122.298 34.5024L124.298 36.5024L128.298 32.5024M122.498 40.5024H128.098C129.219 40.5024 129.779 40.5024 130.206 40.2845C130.583 40.0927 130.889 39.7867 131.08 39.4104C131.298 38.9826 131.298 38.4225 131.298 37.3024V31.7024C131.298 30.5823 131.298 30.0223 131.08 29.5945C130.889 29.2181 130.583 28.9122 130.206 28.7204C129.779 28.5024 129.219 28.5024 128.098 28.5024H122.498C121.378 28.5024 120.818 28.5024 120.39 28.7204C120.014 28.9122 119.708 29.2181 119.516 29.5945C119.298 30.0223 119.298 30.5823 119.298 31.7024V37.3024C119.298 38.4225 119.298 38.9826 119.516 39.4104C119.708 39.7867 120.014 40.0927 120.39 40.2845C120.818 40.5024 121.378 40.5024 122.498 40.5024Z" stroke="white" stroke-linecap="round" stroke-linejoin="round"/>
<rect x="303.259" y="205.199" width="29.0547" height="29.0547" rx="8" fill="#E86194"/>
<path d="M323.786 225.727H318.453M311.453 226.06L315.152 224.637C315.389 224.546 315.507 224.501 315.618 224.441C315.716 224.388 315.81 224.327 315.898 224.259C315.997 224.182 316.087 224.092 316.266 223.913L323.786 216.393C324.522 215.657 324.522 214.463 323.786 213.727C323.05 212.99 321.856 212.99 321.119 213.727L313.599 221.246C313.42 221.426 313.331 221.515 313.254 221.615C313.185 221.703 313.124 221.796 313.071 221.895C313.012 222.005 312.967 222.124 312.876 222.36L311.453 226.06ZM311.453 226.06L312.825 222.493C312.923 222.237 312.972 222.11 313.056 222.051C313.13 222 313.221 221.981 313.309 221.998C313.41 222.017 313.506 222.114 313.7 222.307L315.206 223.813C315.399 224.006 315.496 224.103 315.515 224.204C315.532 224.292 315.512 224.383 315.461 224.456C315.403 224.541 315.275 224.59 315.02 224.688L311.453 226.06Z" stroke="white" stroke-linecap="round" stroke-linejoin="round"/>
<rect x="335.945" y="20.8833" width="29.0547" height="29.0547" rx="8" fill="#FDDC3F" fill-opacity="0.3"/>
<rect width="16" height="16" transform="translate(342.473 27.4106)" fill="#FDDC3F" fill-opacity="0.1"/>
<path d="M350.473 31.0775L347.38 35.5753C347.194 35.8461 347.101 35.9815 347.107 36.094C347.112 36.192 347.159 36.2829 347.237 36.3424C347.327 36.4108 347.491 36.4108 347.82 36.4108H350.473V39.7441L353.565 35.2463C353.751 34.9755 353.844 34.8401 353.839 34.7276C353.834 34.6296 353.786 34.5387 353.708 34.4792C353.618 34.4108 353.454 34.4108 353.125 34.4108H350.473V31.0775Z" stroke="#D6B100" stroke-linecap="round" stroke-linejoin="round"/>
<path d="M350.473 42.0775C354.155 42.0775 357.139 39.0927 357.139 35.4108C357.139 31.7289 354.155 28.7441 350.473 28.7441C346.791 28.7441 343.806 31.7289 343.806 35.4108C343.806 39.0927 346.791 42.0775 350.473 42.0775Z" stroke="#D6B100" stroke-linecap="round" stroke-linejoin="round"/>
<rect width="29.0547" height="29.0547" rx="8" fill="#3D50FC" fill-opacity="0.1"/>
<g clip-path="url(#clip0_313_4633)">
<path d="M21.6606 14.194L20.3277 15.5273L18.994 14.194M20.4907 15.194C20.5149 14.9751 20.5273 14.7527 20.5273 14.5273C20.5273 11.2136 17.8411 8.52734 14.5273 8.52734C11.2136 8.52734 8.52734 11.2136 8.52734 14.5273C8.52734 17.8411 11.2136 20.5273 14.5273 20.5273C16.4122 20.5273 18.094 19.6582 19.194 18.2989M14.5273 11.194V14.5273L16.5273 15.8607" stroke="#3D50FC" stroke-linecap="round" stroke-linejoin="round"/>
</g>
<rect x="259.677" y="32.6865" width="29.0547" height="29.0547" rx="8" fill="black" fill-opacity="0.8"/>
<mask id="mask0_313_4633" style="mask-type:luminance" maskUnits="userSpaceOnUse" x="265" y="38" width="18" height="18">
<path d="M274.204 55.2139C278.622 55.2139 282.204 51.6323 282.204 47.2139C282.204 42.7955 278.622 39.2139 274.204 39.2139C269.786 39.2139 266.204 42.7955 266.204 47.2139C266.204 51.6323 269.786 55.2139 274.204 55.2139Z" fill="white" stroke="white" stroke-linejoin="round"/>
<path d="M272.604 47.2136V44.4424L275.004 45.828L277.404 47.2136L275.004 48.5992L272.604 49.9848V47.2136Z" fill="black" stroke="black" stroke-linejoin="round"/>
</mask>
<g mask="url(#mask0_313_4633)">
<path d="M264.604 37.6138H283.804V56.8138H264.604V37.6138Z" fill="white"/>
</g>
<rect x="18.1592" y="192.488" width="29.0547" height="29.0547" rx="8" fill="#03C75A" fill-opacity="0.1"/>
<path d="M26.8532 214.515C26.3949 214.515 26.0026 214.352 25.6765 214.026C25.3504 213.7 25.1871 213.307 25.1865 212.848V201.182C25.1865 200.723 25.3499 200.331 25.6765 200.005C26.0032 199.679 26.3954 199.516 26.8532 199.515H38.5199C38.9782 199.515 39.3707 199.678 39.6974 200.005C40.024 200.332 40.1871 200.724 40.1865 201.182V212.848C40.1865 213.307 40.0235 213.699 39.6974 214.026C39.3712 214.353 38.9787 214.516 38.5199 214.515H26.8532ZM27.6865 211.182H37.6865L34.5615 207.015L32.0615 210.348L30.1865 207.848L27.6865 211.182Z" fill="#03C75A"/>
<rect x="78.0846" y="226.99" width="29.0547" height="29.0547" rx="8" fill="#47A6A9"/>
<path d="M95.7369 235.519C94.4463 235.519 93.3163 236.074 92.6119 237.012C91.9076 236.074 90.7776 235.519 89.4869 235.519C88.4596 235.52 87.4746 235.929 86.7482 236.655C86.0217 237.382 85.6131 238.367 85.6119 239.394C85.6119 243.769 92.0988 247.31 92.3751 247.457C92.4479 247.496 92.5293 247.516 92.6119 247.516C92.6946 247.516 92.776 247.496 92.8488 247.457C93.1251 247.31 99.6119 243.769 99.6119 239.394C99.6108 238.367 99.2022 237.382 98.4757 236.655C97.7492 235.929 96.7643 235.52 95.7369 235.519ZM92.6119 246.444C91.4707 245.779 86.6119 242.75 86.6119 239.394C86.6129 238.632 86.9162 237.901 87.4551 237.362C87.9941 236.823 88.7247 236.52 89.4869 236.519C90.7026 236.519 91.7232 237.167 92.1494 238.207C92.1871 238.298 92.2512 238.377 92.3335 238.432C92.4159 238.487 92.5128 238.517 92.6119 238.517C92.7111 238.517 92.808 238.487 92.8903 238.432C92.9727 238.377 93.0368 238.298 93.0744 238.207C93.5007 237.165 94.5213 236.519 95.7369 236.519C96.4991 236.52 97.2298 236.823 97.7688 237.362C98.3077 237.901 98.6109 238.632 98.6119 239.394C98.6119 242.745 93.7519 245.778 92.6119 246.444Z" fill="white"/>
<rect x="305.983" y="90.7959" width="29.0547" height="29.0547" rx="8" fill="#1F6EEA"/>
<path d="M323.51 108.657H326.843L323.51 111.99H326.843M327.144 105.99C327.165 105.771 327.177 105.548 327.177 105.323C327.177 101.642 324.192 98.6567 320.51 98.6567C316.828 98.6567 313.843 101.642 313.843 105.323C313.843 109.005 316.828 111.99 320.51 111.99C320.622 111.99 320.733 111.987 320.843 111.982C320.955 111.976 321.066 111.968 321.177 111.957M320.51 101.323V105.323L323.002 106.57" stroke="white" stroke-linecap="round" stroke-linejoin="round"/>
<rect x="36.3184" y="89.8882" width="29.0547" height="29.0547" rx="8" fill="#FFE812"/>
<g clip-path="url(#clip1_313_4633)">
<path d="M48.1791 105.749C48.1791 105.749 49.1791 107.082 50.8457 107.082C52.5124 107.082 53.5124 105.749 53.5124 105.749M52.8457 102.416H52.8524M48.8457 102.416H48.8524M57.5124 104.416C57.5124 108.098 54.5276 111.082 50.8457 111.082C47.1638 111.082 44.1791 108.098 44.1791 104.416C44.1791 100.734 47.1638 97.749 50.8457 97.749C54.5276 97.749 57.5124 100.734 57.5124 104.416ZM53.1791 102.416C53.1791 102.6 53.0298 102.749 52.8457 102.749C52.6616 102.749 52.5124 102.6 52.5124 102.416C52.5124 102.232 52.6616 102.082 52.8457 102.082C53.0298 102.082 53.1791 102.232 53.1791 102.416ZM49.1791 102.416C49.1791 102.6 49.0298 102.749 48.8457 102.749C48.6616 102.749 48.5124 102.6 48.5124 102.416C48.5124 102.232 48.6616 102.082 48.8457 102.082C49.0298 102.082 49.1791 102.232 49.1791 102.416Z" stroke="black" stroke-linecap="round" stroke-linejoin="round"/>
</g>
<rect x="180.684" y="201.567" width="29.0547" height="29.0547" rx="8" fill="#7442D9" fill-opacity="0.1"/>
<path d="M193.211 212.761H190.278C189.905 212.761 189.718 212.761 189.575 212.834C189.45 212.898 189.348 213 189.284 213.125C189.211 213.268 189.211 213.455 189.211 213.828V221.028C189.211 221.401 189.211 221.588 189.284 221.731C189.348 221.856 189.45 221.958 189.575 222.022C189.718 222.095 189.905 222.095 190.278 222.095H193.211M193.211 222.095H197.211M193.211 222.095L193.211 211.161C193.211 210.788 193.211 210.601 193.284 210.459C193.348 210.333 193.45 210.231 193.575 210.167C193.718 210.095 193.905 210.095 194.278 210.095L196.145 210.095C196.518 210.095 196.705 210.095 196.847 210.167C196.973 210.231 197.075 210.333 197.139 210.459C197.211 210.601 197.211 210.788 197.211 211.161V222.095M197.211 215.428H200.145C200.518 215.428 200.705 215.428 200.847 215.501C200.973 215.565 201.075 215.667 201.139 215.792C201.211 215.935 201.211 216.121 201.211 216.495V221.028C201.211 221.401 201.211 221.588 201.139 221.731C201.075 221.856 200.973 221.958 200.847 222.022C200.705 222.095 200.518 222.095 200.145 222.095H197.211" stroke="#7442D9" stroke-linecap="round" stroke-linejoin="round"/>
<path d="M164.45 72.3009C164.685 71.4276 165.477 70.8208 166.381 70.8208H172.518C173.834 70.8208 174.791 72.07 174.449 73.3407L167.224 100.178C166.988 101.051 166.197 101.658 165.292 101.658H159.156C157.84 101.658 156.882 100.409 157.224 99.138L164.45 72.3009Z" fill="#131313"/>
<path d="M185.225 83.3659C185.461 82.4943 186.252 81.8892 187.155 81.8892H193.071C194.389 81.8892 195.346 83.1408 195.002 84.4124L190.728 100.18C190.491 101.051 189.7 101.657 188.797 101.657H182.881C181.564 101.657 180.606 100.405 180.951 99.1333L185.225 83.3659Z" fill="#131313"/>
<path d="M197.085 83.3659C197.322 82.4943 198.113 81.8892 199.016 81.8892H204.932C206.249 81.8892 207.207 83.1408 206.862 84.4124L202.588 100.18C202.352 101.051 201.561 101.657 200.658 101.657H194.742C193.424 101.657 192.467 100.405 192.811 99.1333L197.085 83.3659Z" fill="#131313"/>
<path d="M169.197 100.608C169.197 95.1258 173.732 90.7301 179.212 90.9013L181.848 90.9837L179.11 100.226C178.858 101.076 178.078 101.658 177.192 101.658H170.247C169.667 101.658 169.197 101.188 169.197 100.608Z" fill="#131313"/>
<path d="M115.845 126.604V144.533H113.15V135.588H111.782V143.771H109.165V126.975H111.782V133.322H113.15V126.604H115.845ZM108.325 128.674C108.306 133.928 107.114 138.029 101.743 141.135L100.142 139.182C102.329 137.902 103.706 136.525 104.556 134.904L100.669 135.334L100.357 132.951L105.337 132.717C105.454 132.15 105.542 131.555 105.61 130.92H101.294V128.674H108.325ZM132.583 126.604V144.533H129.771V126.604H132.583ZM124.673 132.15C124.673 134.611 125.942 137.561 129.009 138.811L127.505 140.959C125.483 140.148 124.107 138.518 123.306 136.564C122.505 138.645 121.099 140.393 119.028 141.232L117.544 139.064C120.591 137.756 121.86 134.748 121.86 132.15V131.701H118.189V129.475H121.86V127.033H124.653V129.475H128.247V131.701H124.673V132.15ZM151.216 140.197V142.521H134.829V140.197H151.216ZM149.907 128.107V130.354H147.485V135.49H149.81V137.717H136.138V135.49H138.423V130.354H136.06V128.107H149.907ZM141.235 135.49H144.712V130.354H141.235V135.49ZM158.911 128.322V135.314H155.278V138.068C156.909 138.049 158.452 137.98 160.161 137.658L160.396 139.924C158.13 140.354 156.138 140.393 153.872 140.393H152.583V133.127H156.196V130.549H152.564V128.322H158.911ZM167.661 126.604V144.533H165.005V126.604H167.661ZM163.931 126.916V143.693H161.314V134.885H159.634V132.619H161.314V126.916H163.931ZM184.458 126.604V144.572H181.626V126.604H184.458ZM174.673 127.834C177.388 127.834 179.419 130.314 179.439 134.24C179.419 138.225 177.388 140.705 174.673 140.705C171.9 140.705 169.868 138.225 169.868 134.24C169.868 130.314 171.9 127.834 174.673 127.834ZM174.673 130.373C173.403 130.373 172.583 131.682 172.603 134.24C172.583 136.838 173.403 138.146 174.673 138.146C175.903 138.146 176.724 136.838 176.724 134.24C176.724 131.682 175.903 130.373 174.673 130.373ZM203.071 140.158V142.443H186.685V140.158H203.071ZM201.626 128.049V130.275H196.353C196.45 132.59 198.325 134.768 202.525 135.393L201.431 137.619C198.218 137.072 196.011 135.607 194.868 133.596C193.745 135.656 191.567 137.189 188.403 137.736L187.31 135.471C191.362 134.865 193.228 132.59 193.364 130.275H188.052V128.049H201.626ZM222.72 126.623V131.994H225.044V134.279H222.72V140.002H219.907V126.623H222.72ZM219.048 128.42V130.607H208.423V128.42H212.329V126.604H215.142V128.42H219.048ZM213.735 131.115C216.353 131.115 218.189 132.541 218.189 134.631C218.189 136.701 216.353 138.088 213.735 138.088C211.118 138.088 209.243 136.701 209.263 134.631C209.243 132.541 211.118 131.115 213.735 131.115ZM213.735 133.264C212.7 133.264 211.997 133.732 211.997 134.631C211.997 135.529 212.7 135.959 213.735 135.979C214.79 135.959 215.513 135.529 215.513 134.631C215.513 133.732 214.79 133.264 213.735 133.264ZM223.306 141.994V144.24H210.962V138.967H213.775V141.994H223.306ZM246.567 135.354V137.58H240.005V140.49H237.232V137.58H230.181V135.354H246.567ZM244.478 127.365V134.084H232.192V127.365H244.478ZM234.946 129.533V131.916H241.724V129.533H234.946ZM244.771 141.994V144.24H232.036V139.006H234.849V141.994H244.771ZM257.7 127.775V130.002H254.282C254.38 131.926 255.513 133.791 258.325 134.592L256.997 136.799C255.034 136.223 253.706 135.09 252.915 133.635C252.114 135.363 250.708 136.73 248.579 137.404L247.153 135.197C250.093 134.289 251.294 132.111 251.411 130.002H247.896V127.775H257.7ZM261.763 126.604V130.646H264.087V132.912H261.763V137.189H258.95V126.604H261.763ZM255.845 137.482C259.595 137.482 261.939 138.771 261.939 140.998C261.939 143.225 259.595 144.553 255.845 144.533C252.036 144.553 249.653 143.225 249.653 140.998C249.653 138.771 252.036 137.482 255.845 137.482ZM255.845 139.67C253.618 139.65 252.446 140.08 252.466 140.998C252.446 141.936 253.618 142.365 255.845 142.365C258.052 142.365 259.165 141.936 259.165 140.998C259.165 140.08 258.052 139.65 255.845 139.67ZM151.558 160.893V163.08H139.077V155.521H151.401V157.748H141.968V160.893H151.558ZM153.433 164.701V166.928H146.577V172.514H143.784V166.928H137.046V164.701H153.433ZM170.698 161.635V163.822H163.901V164.779H168.745V169.506H158.98V170.326H169.175V172.436H156.206V167.572H165.952V166.83H156.206V164.779H161.128V163.822H154.351V161.635H170.698ZM169.214 155.072V157.221H164.507C165.142 158.109 166.812 158.949 170.034 159.154L169.155 161.264C165.757 161.029 163.56 160.023 162.495 158.607C161.431 160.023 159.263 161.029 155.894 161.264L155.034 159.154C158.228 158.949 159.868 158.119 160.523 157.221H155.835V155.072H169.214ZM188.023 168.314V170.6H171.636V168.314H178.413V165.814H173.472V159.643H183.413V157.963H173.452V155.717H186.187V161.83H176.284V163.549H186.597V165.814H181.187V168.314H188.023ZM203.608 155.58V157.826H200.191C200.288 159.76 201.421 161.762 204.273 162.67L202.847 164.838C200.894 164.213 199.566 162.992 198.784 161.479C197.983 163.139 196.607 164.467 194.546 165.131L193.062 162.963C195.991 162.035 197.192 159.896 197.319 157.826H193.804V155.58H203.608ZM207.671 154.604V158.842H209.995V161.166H207.671V165.424H204.858V154.604H207.671ZM207.671 166.127V172.533H204.858V168.354H195.503V166.127H207.671ZM217.651 156.928C217.632 159.271 218.687 161.479 221.636 162.377L220.151 164.564C218.267 163.93 217.017 162.768 216.284 161.244C215.483 163.021 214.077 164.418 211.948 165.111L210.464 162.865C213.648 161.889 214.78 159.486 214.8 157.064V155.521H217.651V156.928ZM225.855 154.604V165.072H223.062V160.014H219.898V157.709H223.062V154.604H225.855ZM219.663 165.521C223.53 165.521 225.894 166.811 225.913 169.037C225.894 171.264 223.53 172.553 219.663 172.533C215.835 172.553 213.472 171.264 213.472 169.037C213.472 166.811 215.835 165.521 219.663 165.521ZM219.663 167.689C217.417 167.689 216.265 168.1 216.265 169.037C216.265 169.936 217.417 170.365 219.663 170.365C221.948 170.365 223.101 169.936 223.12 169.037C223.101 168.1 221.948 167.689 219.663 167.689Z" fill="black"/>
<defs>
<clipPath id="clip0_313_4633">
<rect width="16" height="16" fill="white" transform="translate(6.52734 6.52734)"/>
</clipPath>
<clipPath id="clip1_313_4633">
<rect width="16" height="16" fill="white" transform="translate(42.8457 96.4155)"/>
</clipPath>
</defs>
</svg>
